<svg width="360" height="360" viewBox="0 0 360 360" fill="none" xmlns="http://www.w3.org/2000/svg">
<rect width="360" height="360" fill="#D6F9D4"/>
<rect width="30" height="30" fill="#77B777"/>
<rect y="30" width="30" height="30" fill="#77B777"/>
<rect y="60" width="30" height="30" fill="#77B777"/>
<rect y="90" width="30" height="30" fill="#77B777"/>
<rect y="120" width="30" height="30" fill="#77B777"/>
<rect y="150" width="30" height="30" fill="#77B777"/>
<rect y="180" width="30" height="30" fill="#77B777"/>
<rect y="210" width="30" height="30" fill="#77B777"/>
<rect y="240" width="30" height="30" fill="#77B777"/>
<rect y="270" width="30" height="30" fill="#77B777"/>
<rect y="300" width="30" height="30" fill="#77B777"/>
<rect y="330" width="30" height="30" fill="#77B777"/>
<rect x="330" width="30" height="30" fill="#77B777"/>
<rect x="330" y="30" width="30" height="30" fill="#77B777"/>
<rect x="330" y="60" width="30" height="30" fill="#77B777"/>
<rect x="330" y="90" width="30" height="30" fill="#77B777"/>
<rect x="330" y="120" width="30" height="30" fill="#77B777"/>
<rect x="330" y="150" width="30" height="30" fill="#77B777"/>
<rect x="330" y="180" width="30" height="30" fill="#77B777"/>
<rect x="330" y="210" width="30" height="30" fill="#77B777"/>
<rect x="330" y="240" width="30" height="30" fill="#77B777"/>
<rect x="330" y="270" width="30" height="30" fill="#77B777"/>
<rect x="330" y="300" width="30" height="30" fill="#77B777"/>
<rect x="330" y="330" width="30" height="30" fill="#77B777"/>
<rect x="360" width="30" height="30" transform="rotate(90 360 0)" fill="#77B777"/>
<rect x="330" width="30" height="30" transform="rotate(90 330 0)" fill="#77B777"/>
<rect x="300" width="30" height="30" transform="rotate(90 300 0)" fill="#77B777"/>
<rect x="270" width="30" height="30" transform="rotate(90 270 0)" fill="#77B777"/>
<rect x="240" width="30" height="30" transform="rotate(90 240 0)" fill="#77B777"/>
<rect x="210" width="30" height="30" transform="rotate(90 210 0)" fill="#77B777"/>
<rect x="180" width="30" height="30" transform="rotate(90 180 0)" fill="#77B777"/>
<rect x="150" width="30" height="30" transform="rotate(90 150 0)" fill="#77B777"/>
<rect x="120" width="30" height="30" transform="rotate(90 120 0)" fill="#77B777"/>
<rect x="90" width="30" height="30" transform="rotate(90 90 0)" fill="#77B777"/>
<rect x="60" width="30" height="30" transform="rotate(90 60 0)" fill="#77B777"/>
<rect x="30" width="30" height="30" transform="rotate(90 30 0)" fill="#77B777"/>
<rect x="360" y="330" width="30" height="30" transform="rotate(90 360 330)" fill="#77B777"/>
<rect x="330" y="330" width="30" height="30" transform="rotate(90 330 330)" fill="#77B777"/>
<rect x="195" y="165" width="30" height="30" transform="rotate(90 195 165)" fill="#77B777"/>
<rect x="225" y="195" width="30" height="30" transform="rotate(90 225 195)" fill="#77B777"/>
<rect x="255" y="225" width="30" height="30" transform="rotate(90 255 225)" fill="#77B777"/>
<rect x="285" y="255" width="30" height="30" transform="rotate(90 285 255)" fill="#77B777"/>
<rect x="165" y="135" width="30" height="30" transform="rotate(90 165 135)" fill="#77B777"/>
<rect x="135" y="105" width="30" height="30" transform="rotate(90 135 105)" fill="#77B777"/>
<rect x="105" y="75" width="30" height="30" transform="rotate(90 105 75)" fill="#77B777"/>
<rect x="165" y="195" width="30" height="30" transform="rotate(90 165 195)" fill="#77B777"/>
<rect x="135" y="225" width="30" height="30" transform="rotate(90 135 225)" fill="#77B777"/>
<rect x="105" y="255" width="30" height="30" transform="rotate(90 105 255)" fill="#77B777"/>
<rect x="225" y="135" width="30" height="30" transform="rotate(90 225 135)" fill="#77B777"/>
<rect x="255" y="105" width="30" height="30" transform="rotate(90 255 105)" fill="#77B777"/>
<rect x="285" y="75" width="30" height="30" transform="rotate(90 285 75)" fill="#77B777"/>
<rect x="300" y="330" width="30" height="30" transform="rotate(90 300 330)" fill="#77B777"/>
<rect x="270" y="330" width="30" height="30" transform="rotate(90 270 330)" fill="#77B777"/>
<rect x="240" y="330" width="30" height="30" transform="rotate(90 240 330)" fill="#77B777"/>
<rect x="210" y="330" width="30" height="30" transform="rotate(90 210 330)" fill="#77B777"/>
<rect x="180" y="330" width="30" height="30" transform="rotate(90 180 330)" fill="#77B777"/>
<rect x="150" y="330" width="30" height="30" transform="rotate(90 150 330)" fill="#77B777"/>
<rect x="120" y="330" width="30" height="30" transform="rotate(90 120 330)" fill="#77B777"/>
<rect x="90" y="330" width="30" height="30" transform="rotate(90 90 330)" fill="#77B777"/>
<rect x="60" y="330" width="30" height="30" transform="rotate(90 60 330)" fill="#77B777"/>
<rect x="30" y="330" width="30" height="30" transform="rotate(90 30 330)" fill="#77B777"/>
</svg>
