<svg width="360" height="360" viewBox="0 0 360 360" fill="none" xmlns="http://www.w3.org/2000/svg">
<rect x="195" y="165" width="30" height="30" transform="rotate(90 195 165)" fill="#416956"/>
<rect x="225" y="195" width="30" height="30" transform="rotate(90 225 195)" fill="#416956"/>
<rect x="255" y="225" width="30" height="30" transform="rotate(90 255 225)" fill="#416956"/>
<rect x="285" y="255" width="30" height="30" transform="rotate(90 285 255)" fill="#416956"/>
<rect x="165" y="135" width="30" height="30" transform="rotate(90 165 135)" fill="#416956"/>
<rect x="135" y="105" width="30" height="30" transform="rotate(90 135 105)" fill="#416956"/>
<rect x="105" y="75" width="30" height="30" transform="rotate(90 105 75)" fill="#416956"/>
<rect x="165" y="195" width="30" height="30" transform="rotate(90 165 195)" fill="#416956"/>
<rect x="135" y="225" width="30" height="30" transform="rotate(90 135 225)" fill="#416956"/>
<rect x="105" y="255" width="30" height="30" transform="rotate(90 105 255)" fill="#416956"/>
<rect x="225" y="135" width="30" height="30" transform="rotate(90 225 135)" fill="#416956"/>
<rect x="255" y="105" width="30" height="30" transform="rotate(90 255 105)" fill="#416956"/>
<rect x="285" y="75" width="30" height="30" transform="rotate(90 285 75)" fill="#416956"/>
</svg>
