<svg width="450" height="450" viewBox="0 0 450 450" fill="none" xmlns="http://www.w3.org/2000/svg">
<rect x="360" y="30" width="390" height="270" transform="rotate(90 360 30)" fill="#77B777"/>
<rect x="420" y="360" width="390" height="270" transform="rotate(180 420 360)" fill="#77B777"/>
<rect width="30" height="30" transform="matrix(1 0 0 -1 150 30)" fill="#416956"/>
<rect width="30" height="30" transform="matrix(1 0 0 -1 180 30)" fill="#416956"/>
<rect width="30" height="30" transform="matrix(1 0 0 -1 210 30)" fill="#416956"/>
<rect width="30" height="30" transform="matrix(1 0 0 -1 240 30)" fill="#416956"/>
<rect width="30" height="30" transform="matrix(1 0 0 -1 270 30)" fill="#416956"/>
<rect width="30" height="30" transform="matrix(0 1 1 0 420 150)" fill="#416956"/>
<rect width="30" height="30" transform="matrix(0 1 1 0 150 150)" fill="#416956"/>
<rect width="30" height="30" transform="matrix(0 1 1 0 150 120)" fill="#416956"/>
<rect width="30" height="30" transform="matrix(0 1 1 0 150 90)" fill="#416956"/>
<rect width="30" height="30" transform="matrix(0 1 1 0 150 210)" fill="#416956"/>
<rect width="30" height="30" transform="matrix(0 1 1 0 150 180)" fill="#416956"/>
<rect width="30" height="30" transform="matrix(0 1 1 0 150 270)" fill="#416956"/>
<rect width="30" height="30" transform="matrix(0 1 1 0 150 300)" fill="#416956"/>
<rect width="30" height="30" transform="matrix(0 1 1 0 150 330)" fill="#416956"/>
<rect width="30" height="30" transform="matrix(0 1 1 0 180 300)" fill="#416956"/>
<rect width="30" height="30" transform="matrix(0 1 1 0 210 270)" fill="#416956"/>
<rect width="30" height="30" transform="matrix(0 1 1 0 240 240)" fill="#416956"/>
<rect width="30" height="30" transform="matrix(0 1 1 0 240 270)" fill="#416956"/>
<rect width="30" height="30" transform="matrix(0 1 1 0 270 240)" fill="#416956"/>
<rect width="30" height="30" transform="matrix(0 1 1 0 270 210)" fill="#416956"/>
<rect width="30" height="30" transform="matrix(0 1 1 0 240 210)" fill="#416956"/>
<rect x="180" y="150" width="30" height="30" transform="rotate(-90 180 150)" fill="#416956"/>
<rect x="210" y="180" width="30" height="30" transform="rotate(-90 210 180)" fill="#416956"/>
<rect x="240" y="210" width="30" height="30" transform="rotate(-90 240 210)" fill="#416956"/>
<rect x="240" y="180" width="30" height="30" transform="rotate(-90 240 180)" fill="#416956"/>
<rect x="270" y="210" width="30" height="30" transform="rotate(-90 270 210)" fill="#416956"/>
<rect x="300" y="240" width="30" height="30" transform="rotate(-90 300 240)" fill="#416956"/>
<rect width="30" height="30" transform="matrix(0 1 1 0 150 240)" fill="#416956"/>
<rect width="30" height="30" transform="matrix(0 1 1 0 180 150)" fill="#416956"/>
<rect width="30" height="30" transform="matrix(0 1 1 0 180 210)" fill="#416956"/>
<rect width="30" height="30" transform="matrix(0 1 1 0 180 180)" fill="#416956"/>
<rect width="30" height="30" transform="matrix(0 1 1 0 180 270)" fill="#416956"/>
<rect width="30" height="30" transform="matrix(0 1 1 0 180 240)" fill="#416956"/>
<rect width="30" height="30" transform="matrix(0 1 1 0 210 210)" fill="#416956"/>
<rect width="30" height="30" transform="matrix(0 1 1 0 210 180)" fill="#416956"/>
<rect width="30" height="30" transform="matrix(0 1 1 0 210 240)" fill="#416956"/>
<rect width="30" height="30" transform="matrix(0 1 1 0 420 180)" fill="#416956"/>
<rect width="30" height="30" transform="matrix(0 1 1 0 420 210)" fill="#416956"/>
<rect width="30" height="30" transform="matrix(0 1 1 0 420 240)" fill="#416956"/>
<rect width="30" height="30" transform="matrix(0 1 1 0 420 270)" fill="#416956"/>
<rect width="30" height="30" transform="matrix(1 0 0 -1 300 60)" fill="#416956"/>
<rect width="30" height="30" transform="matrix(1 0 0 -1 330 60)" fill="#416956"/>
<rect width="30" height="30" transform="matrix(0 1 1 0 390 90)" fill="#416956"/>
<rect width="30" height="30" transform="matrix(0 1 1 0 390 120)" fill="#416956"/>
<rect width="30" height="30" transform="matrix(1 0 0 -1 360 90)" fill="#416956"/>
<rect x="30" y="150" width="30" height="30" transform="rotate(90 30 150)" fill="#416956"/>
<rect x="30" y="180" width="30" height="30" transform="rotate(90 30 180)" fill="#416956"/>
<rect x="30" y="210" width="30" height="30" transform="rotate(90 30 210)" fill="#416956"/>
<rect x="30" y="240" width="30" height="30" transform="rotate(90 30 240)" fill="#416956"/>
<rect x="30" y="270" width="30" height="30" transform="rotate(90 30 270)" fill="#416956"/>
<rect x="150" y="60" width="30" height="30" transform="rotate(180 150 60)" fill="#416956"/>
<rect x="120" y="60" width="30" height="30" transform="rotate(180 120 60)" fill="#416956"/>
<rect x="60" y="90" width="30" height="30" transform="rotate(90 60 90)" fill="#416956"/>
<rect x="60" y="120" width="30" height="30" transform="rotate(90 60 120)" fill="#416956"/>
<rect x="90" y="90" width="30" height="30" transform="rotate(180 90 90)" fill="#416956"/>
<rect x="150" y="420" width="30" height="30" fill="#416956"/>
<rect x="180" y="420" width="30" height="30" fill="#416956"/>
<rect x="210" y="420" width="30" height="30" fill="#416956"/>
<rect x="240" y="420" width="30" height="30" fill="#416956"/>
<rect x="270" y="420" width="30" height="30" fill="#416956"/>
<rect x="300" y="390" width="30" height="30" fill="#416956"/>
<rect x="330" y="390" width="30" height="30" fill="#416956"/>
<rect x="390" y="360" width="30" height="30" transform="rotate(-90 390 360)" fill="#416956"/>
<rect x="390" y="330" width="30" height="30" transform="rotate(-90 390 330)" fill="#416956"/>
<rect x="360" y="360" width="30" height="30" fill="#416956"/>
<rect width="30" height="30" transform="matrix(-1 0 0 1 150 390)" fill="#416956"/>
<rect width="30" height="30" transform="matrix(-1 0 0 1 120 390)" fill="#416956"/>
<rect width="30" height="30" transform="matrix(0 -1 -1 0 60 360)" fill="#416956"/>
<rect width="30" height="30" transform="matrix(0 -1 -1 0 60 330)" fill="#416956"/>
<rect width="30" height="30" transform="matrix(-1 0 0 1 90 360)" fill="#416956"/>
</svg>
