<svg width="450" height="450" viewBox="0 0 450 450" fill="none" xmlns="http://www.w3.org/2000/svg">
<rect x="360" y="30" width="390" height="270" transform="rotate(90 360 30)" fill="#D6F9D4"/>
<rect x="420" y="360" width="390" height="270" transform="rotate(180 420 360)" fill="#D6F9D4"/>
<rect width="30" height="30" transform="matrix(1 0 0 -1 150 30)" fill="#77B777"/>
<rect width="30" height="30" transform="matrix(1 0 0 -1 180 30)" fill="#77B777"/>
<rect width="30" height="30" transform="matrix(1 0 0 -1 210 30)" fill="#77B777"/>
<rect width="30" height="30" transform="matrix(1 0 0 -1 240 30)" fill="#77B777"/>
<rect width="30" height="30" transform="matrix(1 0 0 -1 270 30)" fill="#77B777"/>
<rect width="30" height="30" transform="matrix(1 0 0 -1 165 120)" fill="#77B777"/>
<rect width="30" height="30" transform="matrix(1 0 0 -1 195 120)" fill="#77B777"/>
<rect width="30" height="30" transform="matrix(1 0 0 -1 225 120)" fill="#77B777"/>
<rect width="30" height="30" transform="matrix(0 1 1 0 315 180)" fill="#77B777"/>
<rect width="30" height="30" transform="matrix(0 1 1 0 315 210)" fill="#77B777"/>
<rect width="30" height="30" transform="matrix(0 1 1 0 285 240)" fill="#77B777"/>
<rect width="30" height="30" transform="matrix(0 1 1 0 255 240)" fill="#77B777"/>
<rect width="30" height="30" transform="matrix(0 1 1 0 315 240)" fill="#77B777"/>
<rect width="30" height="30" transform="matrix(0 1 1 0 345 240)" fill="#77B777"/>
<rect width="30" height="30" transform="matrix(0 1 1 0 375 240)" fill="#77B777"/>
<rect width="30" height="30" transform="matrix(0 1 1 0 315 270)" fill="#77B777"/>
<rect width="30" height="30" transform="matrix(0 1 1 0 345 270)" fill="#77B777"/>
<rect width="30" height="30" transform="matrix(0 1 1 0 285 270)" fill="#77B777"/>
<rect width="30" height="30" transform="matrix(0 1 1 0 315 300)" fill="#77B777"/>
<rect width="30" height="30" transform="matrix(1 0 0 -1 255 150)" fill="#77B777"/>
<rect width="30" height="30" transform="matrix(1 0 0 -1 285 150)" fill="#77B777"/>
<rect width="30" height="30" transform="matrix(1 0 0 -1 285 180)" fill="#77B777"/>
<rect x="105" y="180" width="30" height="30" transform="rotate(90 105 180)" fill="#77B777"/>
<rect x="105" y="210" width="30" height="30" transform="rotate(90 105 210)" fill="#77B777"/>
<rect x="105" y="240" width="30" height="30" transform="rotate(90 105 240)" fill="#77B777"/>
<rect x="165" y="150" width="30" height="30" transform="rotate(180 165 150)" fill="#77B777"/>
<rect x="135" y="150" width="30" height="30" transform="rotate(180 135 150)" fill="#77B777"/>
<rect x="135" y="180" width="30" height="30" transform="rotate(180 135 180)" fill="#77B777"/>
<rect x="165" y="330" width="30" height="30" fill="#77B777"/>
<rect x="195" y="330" width="30" height="30" fill="#77B777"/>
<rect width="30" height="30" transform="matrix(-1 0 0 1 165 300)" fill="#77B777"/>
<rect width="30" height="30" transform="matrix(-1 0 0 1 135 300)" fill="#77B777"/>
<rect width="30" height="30" transform="matrix(-1 0 0 1 135 270)" fill="#77B777"/>
<rect width="30" height="30" transform="matrix(0 1 1 0 420 150)" fill="#77B777"/>
<rect width="30" height="30" transform="matrix(0 1 1 0 420 180)" fill="#77B777"/>
<rect width="30" height="30" transform="matrix(0 1 1 0 420 210)" fill="#77B777"/>
<rect width="30" height="30" transform="matrix(0 1 1 0 420 240)" fill="#77B777"/>
<rect width="30" height="30" transform="matrix(0 1 1 0 420 270)" fill="#77B777"/>
<rect width="30" height="30" transform="matrix(1 0 0 -1 300 60)" fill="#77B777"/>
<rect width="30" height="30" transform="matrix(1 0 0 -1 330 60)" fill="#77B777"/>
<rect width="30" height="30" transform="matrix(0 1 1 0 390 90)" fill="#77B777"/>
<rect width="30" height="30" transform="matrix(0 1 1 0 390 120)" fill="#77B777"/>
<rect width="30" height="30" transform="matrix(1 0 0 -1 360 90)" fill="#77B777"/>
<rect x="30" y="150" width="30" height="30" transform="rotate(90 30 150)" fill="#77B777"/>
<rect x="30" y="180" width="30" height="30" transform="rotate(90 30 180)" fill="#77B777"/>
<rect x="30" y="210" width="30" height="30" transform="rotate(90 30 210)" fill="#77B777"/>
<rect x="30" y="240" width="30" height="30" transform="rotate(90 30 240)" fill="#77B777"/>
<rect x="30" y="270" width="30" height="30" transform="rotate(90 30 270)" fill="#77B777"/>
<rect x="150" y="60" width="30" height="30" transform="rotate(180 150 60)" fill="#77B777"/>
<rect x="120" y="60" width="30" height="30" transform="rotate(180 120 60)" fill="#77B777"/>
<rect x="60" y="90" width="30" height="30" transform="rotate(90 60 90)" fill="#77B777"/>
<rect x="60" y="120" width="30" height="30" transform="rotate(90 60 120)" fill="#77B777"/>
<rect x="90" y="90" width="30" height="30" transform="rotate(180 90 90)" fill="#77B777"/>
<rect x="150" y="420" width="30" height="30" fill="#77B777"/>
<rect x="180" y="420" width="30" height="30" fill="#77B777"/>
<rect x="210" y="420" width="30" height="30" fill="#77B777"/>
<rect x="240" y="420" width="30" height="30" fill="#77B777"/>
<rect x="270" y="420" width="30" height="30" fill="#77B777"/>
<rect x="300" y="390" width="30" height="30" fill="#77B777"/>
<rect x="330" y="390" width="30" height="30" fill="#77B777"/>
<rect x="390" y="360" width="30" height="30" transform="rotate(-90 390 360)" fill="#77B777"/>
<rect x="390" y="330" width="30" height="30" transform="rotate(-90 390 330)" fill="#77B777"/>
<rect x="360" y="360" width="30" height="30" fill="#77B777"/>
<rect width="30" height="30" transform="matrix(-1 0 0 1 150 390)" fill="#77B777"/>
<rect width="30" height="30" transform="matrix(-1 0 0 1 120 390)" fill="#77B777"/>
<rect width="30" height="30" transform="matrix(0 -1 -1 0 60 360)" fill="#77B777"/>
<rect width="30" height="30" transform="matrix(0 -1 -1 0 60 330)" fill="#77B777"/>
<rect width="30" height="30" transform="matrix(-1 0 0 1 90 360)" fill="#77B777"/>
</svg>
